<svg data-v-fde0c5aa="" xmlns="http://www.w3.org/2000/svg" viewBox="0 0 300 300" class="font"><!----><defs data-v-fde0c5aa=""><linearGradient data-v-fde0c5aa="" gradientTransform="rotate(25)" id="da94ce21-8c4d-49b2-840b-be013ca55350" x1="0%" y1="0%" x2="100%" y2="0%"><stop data-v-fde0c5aa="" offset="0%" stop-color="#30223A" stop-opacity="1"></stop><stop data-v-fde0c5aa="" offset="100%" stop-color="#F13800" stop-opacity="1"></stop></linearGradient></defs><rect data-v-fde0c5aa="" fill="url(#da94ce21-8c4d-49b2-840b-be013ca55350)" x="0" y="0" width="300px" height="300px" class="logo-background-square"></rect><defs data-v-fde0c5aa=""><!----></defs><g data-v-fde0c5aa="" id="019aacd9-cd17-43bd-9e35-18f22a71d3e1" fill="#ffffff" transform="matrix(1.6693222986248681,0,0,1.6693222986248681,40.26709156181002,134.37514306199265)"><path d="M-0.16 16.36L-0.16 15.70L-0.03 15.70L-0.03 15.70Q0.42 15.70 0.78 15.57L0.78 15.57L0.78 15.57Q1.13 15.44 1.37 15.15L1.37 15.15L1.37 15.15Q1.61 14.85 1.73 14.35L1.73 14.35L1.73 14.35Q1.86 13.86 1.86 13.12L1.86 13.12L1.86 4.54L1.86 4.54Q1.86 4.23 1.77 4.04L1.77 4.04L1.77 4.04Q1.67 3.86 1.52 3.75L1.52 3.75L1.52 3.75Q1.36 3.65 1.15 3.62L1.15 3.62L1.15 3.62Q0.94 3.59 0.71 3.59L0.71 3.59L0.53 3.59L0.53 3.00L4.61 3.00L4.61 3.59L4.42 3.59L4.42 3.59Q4.19 3.59 3.98 3.62L3.98 3.62L3.98 3.62Q3.77 3.66 3.61 3.76L3.61 3.76L3.61 3.76Q3.46 3.87 3.37 4.07L3.37 4.07L3.37 4.07Q3.27 4.27 3.27 4.59L3.27 4.59L3.27 13.10L3.27 13.10Q3.27 14.05 3.03 14.67L3.03 14.67L3.03 14.67Q2.78 15.30 2.35 15.67L2.35 15.67L2.35 15.67Q1.92 16.04 1.34 16.20L1.34 16.20L1.34 16.20Q0.75 16.36 0.08 16.36L0.08 16.36L-0.16 16.36ZM7.05 10.96L7.05 10.96L7.05 10.96Q7.05 11.62 7.33 11.95L7.33 11.95L7.33 11.95Q7.61 12.27 8.19 12.27L8.19 12.27L8.19 12.27Q8.61 12.27 8.96 12.13L8.96 12.13L8.96 12.13Q9.30 12.00 9.55 11.74L9.55 11.74L9.55 11.74Q9.79 11.49 9.92 11.13L9.92 11.13L9.92 11.13Q10.05 10.77 10.05 10.32L10.05 10.32L10.05 9.19L9.15 9.23L9.15 9.23Q8.56 9.26 8.16 9.38L8.16 9.38L8.16 9.38Q7.76 9.50 7.51 9.71L7.51 9.71L7.51 9.71Q7.27 9.93 7.16 10.24L7.16 10.24L7.16 10.24Q7.05 10.55 7.05 10.96ZM8.75 6.05L8.75 6.05L8.75 6.05Q8.35 6.05 8.10 6.16L8.10 6.16L8.10 6.16Q7.85 6.28 7.71 6.48L7.71 6.48L7.71 6.48Q7.57 6.69 7.52 6.97L7.52 6.97L7.52 6.97Q7.47 7.25 7.47 7.57L7.47 7.57L7.47 7.57Q6.89 7.57 6.59 7.38L6.59 7.38L6.59 7.38Q6.28 7.18 6.28 6.69L6.28 6.69L6.28 6.69Q6.28 6.33 6.48 6.08L6.48 6.08L6.48 6.08Q6.68 5.82 7.02 5.66L7.02 5.66L7.02 5.66Q7.37 5.50 7.83 5.43L7.83 5.43L7.83 5.43Q8.29 5.35 8.80 5.35L8.80 5.35L8.80 5.35Q9.45 5.35 9.93 5.48L9.93 5.48L9.93 5.48Q10.40 5.61 10.73 5.89L10.73 5.89L10.73 5.89Q11.05 6.18 11.21 6.64L11.21 6.64L11.21 6.64Q11.37 7.10 11.37 7.77L11.37 7.77L11.37 11.40L11.37 11.40Q11.37 11.70 11.42 11.89L11.42 11.89L11.42 11.89Q11.46 12.08 11.57 12.20L11.57 12.20L11.57 12.20Q11.67 12.31 11.84 12.36L11.84 12.36L11.84 12.36Q12.00 12.41 12.24 12.41L12.24 12.41L12.28 12.41L12.28 13.00L10.38 13.00L10.17 11.79L10.05 11.79L10.05 11.79Q9.83 12.09 9.63 12.33L9.63 12.33L9.63 12.33Q9.42 12.58 9.17 12.76L9.17 12.76L9.17 12.76Q8.93 12.93 8.62 13.03L8.62 13.03L8.62 13.03Q8.31 13.13 7.87 13.13L7.87 13.13L7.87 13.13Q7.40 13.13 7.00 13.00L7.00 13.00L7.00 13.00Q6.60 12.87 6.31 12.59L6.31 12.59L6.31 12.59Q6.02 12.31 5.86 11.89L5.86 11.89L5.86 11.89Q5.69 11.47 5.69 10.90L5.69 10.90L5.69 10.90Q5.69 9.78 6.49 9.24L6.49 9.24L6.49 9.24Q7.28 8.70 8.89 8.65L8.89 8.65L10.05 8.61L10.05 7.77L10.05 7.77Q10.05 7.40 10.01 7.08L10.01 7.08L10.01 7.08Q9.97 6.76 9.83 6.53L9.83 6.53L9.83 6.53Q9.69 6.30 9.44 6.18L9.44 6.18L9.44 6.18Q9.18 6.05 8.75 6.05ZM17.60 5.49L20.51 5.49L20.51 6.08L20.47 6.08L20.47 6.08Q20.26 6.08 20.11 6.12L20.11 6.12L20.11 6.12Q19.97 6.17 19.85 6.29L19.85 6.29L19.85 6.29Q19.73 6.41 19.63 6.62L19.63 6.62L19.63 6.62Q19.52 6.84 19.40 7.17L19.40 7.17L17.27 13.05L17.27 13.05Q17.03 13.73 16.81 14.24L16.81 14.24L16.81 14.24Q16.59 14.75 16.35 15.12L16.35 15.12L16.35 15.12Q16.11 15.48 15.83 15.72L15.83 15.72L15.83 15.72Q15.54 15.96 15.18 16.11L15.18 16.11L15.18 16.11Q14.82 16.25 14.35 16.30L14.35 16.30L14.35 16.30Q13.88 16.36 13.25 16.36L13.25 16.36L13.13 16.36L13.13 15.70L13.13 15.70Q13.84 15.70 14.36 15.48L14.36 15.48L14.36 15.48Q14.87 15.27 15.24 14.90L15.24 14.90L15.24 14.90Q15.61 14.53 15.86 14.03L15.86 14.03L15.86 14.03Q16.11 13.53 16.28 12.94L16.28 12.94L13.69 6.82L13.69 6.82Q13.60 6.60 13.51 6.46L13.51 6.46L13.51 6.46Q13.42 6.32 13.31 6.23L13.31 6.23L13.31 6.23Q13.19 6.15 13.05 6.11L13.05 6.11L13.05 6.11Q12.90 6.08 12.69 6.08L12.69 6.08L12.65 6.08L12.65 5.49L16.02 5.49L16.02 6.08L15.98 6.08L15.98 6.08Q15.55 6.08 15.34 6.24L15.34 6.24L15.34 6.24Q15.13 6.41 15.13 6.75L15.13 6.75L15.13 6.75Q15.13 6.87 15.16 6.99L15.16 6.99L15.16 6.99Q15.18 7.11 15.24 7.27L15.24 7.27L16.27 9.76L16.27 9.76Q16.37 10.00 16.47 10.28L16.47 10.28L16.47 10.28Q16.58 10.57 16.67 10.85L16.67 10.85L16.67 10.85Q16.76 11.12 16.84 11.37L16.84 11.37L16.84 11.37Q16.91 11.61 16.94 11.79L16.94 11.79L16.98 11.79L16.98 11.79Q17.06 11.48 17.19 11.04L17.19 11.04L17.19 11.04Q17.32 10.60 17.50 10.10L17.50 10.10L18.44 7.37L18.44 7.37Q18.50 7.20 18.53 7.04L18.53 7.04L18.53 7.04Q18.56 6.88 18.56 6.77L18.56 6.77L18.56 6.77Q18.56 6.41 18.33 6.24L18.33 6.24L18.33 6.24Q18.10 6.08 17.64 6.08L17.64 6.08L17.60 6.08L17.60 5.49ZM27.59 2.36L27.59 11.46L27.59 11.46Q27.59 11.76 27.68 11.95L27.68 11.95L27.68 11.95Q27.77 12.14 27.93 12.24L27.93 12.24L27.93 12.24Q28.09 12.35 28.30 12.38L28.30 12.38L28.30 12.38Q28.51 12.41 28.74 12.41L28.74 12.41L28.85 12.41L28.85 13.00L26.48 13.00L26.33 11.74L26.28 11.74L26.28 11.74Q26.12 12.06 25.92 12.31L25.92 12.31L25.92 12.31Q25.72 12.57 25.46 12.75L25.46 12.75L25.46 12.75Q25.20 12.93 24.87 13.03L24.87 13.03L24.87 13.03Q24.54 13.13 24.13 13.13L24.13 13.13L24.13 13.13Q23.44 13.13 22.91 12.90L22.91 12.90L22.91 12.90Q22.37 12.67 22.01 12.20L22.01 12.20L22.01 12.20Q21.65 11.72 21.46 10.99L21.46 10.99L21.46 10.99Q21.28 10.26 21.28 9.26L21.28 9.26L21.28 9.26Q21.28 8.24 21.46 7.51L21.46 7.51L21.46 7.51Q21.65 6.77 22.01 6.29L22.01 6.29L22.01 6.29Q22.37 5.81 22.91 5.58L22.91 5.58L22.91 5.58Q23.44 5.35 24.13 5.35L24.13 5.35L24.13 5.35Q24.53 5.35 24.86 5.44L24.86 5.44L24.86 5.44Q25.19 5.53 25.45 5.69L25.45 5.69L25.45 5.69Q25.72 5.86 25.92 6.08L25.92 6.08L25.92 6.08Q26.13 6.31 26.28 6.58L26.28 6.58L26.36 6.58L26.36 6.58Q26.34 6.24 26.32 5.94L26.32 5.94L26.32 5.94Q26.30 5.68 26.29 5.42L26.29 5.42L26.29 5.42Q26.28 5.17 26.28 5.04L26.28 5.04L26.28 3.90L26.28 3.90Q26.28 3.59 26.19 3.40L26.19 3.40L26.19 3.40Q26.09 3.21 25.94 3.11L25.94 3.11L25.94 3.11Q25.78 3.01 25.57 2.98L25.57 2.98L25.57 2.98Q25.36 2.95 25.13 2.95L25.13 2.95L25.01 2.95L25.01 2.36L27.59 2.36ZM24.37 12.24L24.37 12.24L24.37 12.24Q24.92 12.24 25.28 12.06L25.28 12.06L25.28 12.06Q25.65 11.87 25.87 11.50L25.87 11.50L25.87 11.50Q26.09 11.14 26.19 10.58L26.19 10.58L26.19 10.58Q26.28 10.01 26.28 9.26L26.28 9.26L26.28 9.26Q26.28 8.52 26.19 7.96L26.19 7.96L26.19 7.96Q26.09 7.40 25.87 7.02L25.87 7.02L25.87 7.02Q25.65 6.64 25.28 6.45L25.28 6.45L25.28 6.45Q24.91 6.25 24.36 6.25L24.36 6.25L24.36 6.25Q23.90 6.25 23.57 6.45L23.57 6.45L23.57 6.45Q23.24 6.64 23.03 7.03L23.03 7.03L23.03 7.03Q22.83 7.41 22.73 7.97L22.73 7.97L22.73 7.97Q22.63 8.54 22.63 9.27L22.63 9.27L22.63 9.27Q22.63 10.76 23.04 11.50L23.04 11.50L23.04 11.50Q23.44 12.24 24.37 12.24ZM30.32 6.29L29.90 3.00L31.38 3.00L30.96 6.29L30.32 6.29ZM35.12 13.13L35.12 13.13L35.12 13.13Q34.60 13.13 34.17 13.04L34.17 13.04L34.17 13.04Q33.74 12.95 33.44 12.76L33.44 12.76L33.44 12.76Q33.14 12.57 32.98 12.29L32.98 12.29L32.98 12.29Q32.81 12.02 32.81 11.65L32.81 11.65L32.81 11.65Q32.81 11.37 32.90 11.18L32.90 11.18L32.90 11.18Q33.00 10.99 33.13 10.88L33.13 10.88L33.13 10.88Q33.26 10.77 33.42 10.73L33.42 10.73L33.42 10.73Q33.57 10.68 33.69 10.68L33.69 10.68L33.69 10.68Q33.69 11.05 33.77 11.38L33.77 11.38L33.77 11.38Q33.84 11.70 34.02 11.94L34.02 11.94L34.02 11.94Q34.20 12.18 34.49 12.32L34.49 12.32L34.49 12.32Q34.78 12.46 35.21 12.46L35.21 12.46L35.21 12.46Q35.58 12.46 35.87 12.37L35.87 12.37L35.87 12.37Q36.16 12.28 36.35 12.11L36.35 12.11L36.35 12.11Q36.54 11.94 36.65 11.71L36.65 11.71L36.65 11.71Q36.75 11.47 36.75 11.19L36.75 11.19L36.75 11.19Q36.75 10.93 36.67 10.74L36.67 10.74L36.67 10.74Q36.59 10.55 36.40 10.39L36.40 10.39L36.40 10.39Q36.20 10.23 35.87 10.06L35.87 10.06L35.87 10.06Q35.53 9.88 35.03 9.67L35.03 9.67L35.03 9.67Q34.49 9.43 34.09 9.20L34.09 9.20L34.09 9.20Q33.69 8.98 33.43 8.72L33.43 8.72L33.43 8.72Q33.17 8.46 33.04 8.13L33.04 8.13L33.04 8.13Q32.91 7.80 32.91 7.34L32.91 7.34L32.91 7.34Q32.91 6.86 33.10 6.49L33.10 6.49L33.10 6.49Q33.28 6.13 33.63 5.88L33.63 5.88L33.63 5.88Q33.98 5.63 34.47 5.50L34.47 5.50L34.47 5.50Q34.95 5.37 35.55 5.37L35.55 5.37L35.55 5.37Q36.05 5.37 36.43 5.47L36.43 5.47L36.43 5.47Q36.81 5.57 37.07 5.75L37.07 5.75L37.07 5.75Q37.33 5.92 37.46 6.16L37.46 6.16L37.46 6.16Q37.59 6.39 37.59 6.65L37.59 6.65L37.59 6.65Q37.59 7.03 37.33 7.26L37.33 7.26L37.33 7.26Q37.06 7.49 36.58 7.49L36.58 7.49L36.58 7.49Q36.58 6.79 36.29 6.40L36.29 6.40L36.29 6.40Q36.00 6.01 35.38 6.01L35.38 6.01L35.38 6.01Q35.02 6.01 34.77 6.09L34.77 6.09L34.77 6.09Q34.51 6.17 34.35 6.32L34.35 6.32L34.35 6.32Q34.19 6.47 34.12 6.68L34.12 6.68L34.12 6.68Q34.04 6.88 34.04 7.13L34.04 7.13L34.04 7.13Q34.04 7.40 34.14 7.59L34.14 7.59L34.14 7.59Q34.23 7.79 34.44 7.95L34.44 7.95L34.44 7.95Q34.65 8.11 34.98 8.27L34.98 8.27L34.98 8.27Q35.31 8.42 35.78 8.61L35.78 8.61L35.78 8.61Q36.33 8.85 36.73 9.07L36.73 9.07L36.73 9.07Q37.13 9.30 37.38 9.56L37.38 9.56L37.38 9.56Q37.64 9.83 37.76 10.17L37.76 10.17L37.76 10.17Q37.88 10.50 37.88 10.94L37.88 10.94L37.88 10.94Q37.88 11.48 37.69 11.89L37.69 11.89L37.69 11.89Q37.49 12.30 37.13 12.58L37.13 12.58L37.13 12.58Q36.76 12.86 36.25 13.00L36.25 13.00L36.25 13.00Q35.75 13.13 35.12 13.13ZM50.02 5.50L50.02 5.50L50.02 5.50Q50.02 5.97 49.89 6.33L49.89 6.33L49.89 6.33Q49.75 6.69 49.52 6.95L49.52 6.95L49.52 6.95Q49.29 7.22 48.97 7.40L48.97 7.40L48.97 7.40Q48.65 7.58 48.28 7.70L48.28 7.70L48.28 7.76L48.28 7.76Q48.76 7.84 49.16 8.04L49.16 8.04L49.16 8.04Q49.55 8.24 49.84 8.56L49.84 8.56L49.84 8.56Q50.12 8.87 50.28 9.31L50.28 9.31L50.28 9.31Q50.44 9.74 50.44 10.29L50.44 10.29L50.44 10.29Q50.44 11.65 49.55 12.32L49.55 12.32L49.55 12.32Q48.66 13.00 46.84 13.00L46.84 13.00L42.67 13.00L42.67 12.41L42.85 12.41L42.85 12.41Q43.09 12.41 43.30 12.37L43.30 12.37L43.30 12.37Q43.50 12.34 43.66 12.23L43.66 12.23L43.66 12.23Q43.82 12.13 43.91 11.93L43.91 11.93L43.91 11.93Q44.00 11.73 44.00 11.40L44.00 11.40L44.00 4.54L44.00 4.54Q44.00 4.23 43.90 4.04L43.90 4.04L43.90 4.04Q43.81 3.86 43.65 3.75L43.65 3.75L43.65 3.75Q43.50 3.65 43.29 3.62L43.29 3.62L43.29 3.62Q43.08 3.59 42.85 3.59L42.85 3.59L42.67 3.59L42.67 3.00L46.42 3.00L46.42 3.00Q48.24 3.00 49.13 3.61L49.13 3.61L49.13 3.61Q50.02 4.21 50.02 5.50ZM45.41 8.11L45.41 12.30L46.77 12.30L46.77 12.30Q47.37 12.30 47.78 12.19L47.78 12.19L47.78 12.19Q48.19 12.08 48.45 11.84L48.45 11.84L48.45 11.84Q48.71 11.59 48.82 11.20L48.82 11.20L48.82 11.20Q48.94 10.81 48.94 10.25L48.94 10.25L48.94 10.25Q48.94 9.71 48.84 9.30L48.84 9.30L48.84 9.30Q48.73 8.90 48.48 8.63L48.48 8.63L48.48 8.63Q48.23 8.37 47.82 8.24L47.82 8.24L47.82 8.24Q47.41 8.11 46.80 8.11L46.80 8.11L45.41 8.11ZM45.41 3.70L45.41 7.41L46.38 7.41L46.38 7.41Q47.00 7.41 47.41 7.30L47.41 7.30L47.41 7.30Q47.82 7.19 48.06 6.96L48.06 6.96L48.06 6.96Q48.31 6.73 48.42 6.37L48.42 6.37L48.42 6.37Q48.52 6.01 48.52 5.50L48.52 5.50L48.52 5.50Q48.52 4.99 48.41 4.65L48.41 4.65L48.41 4.65Q48.29 4.30 48.03 4.09L48.03 4.09L48.03 4.09Q47.77 3.88 47.36 3.79L47.36 3.79L47.36 3.79Q46.94 3.70 46.35 3.70L46.35 3.70L45.41 3.70ZM58.60 9.23L58.60 9.23L58.60 9.23Q58.60 11.20 57.76 12.17L57.76 12.17L57.76 12.17Q56.92 13.13 55.31 13.13L55.31 13.13L55.31 13.13Q54.55 13.13 53.95 12.89L53.95 12.89L53.95 12.89Q53.35 12.65 52.93 12.17L52.93 12.17L52.93 12.17Q52.51 11.68 52.28 10.95L52.28 10.95L52.28 10.95Q52.06 10.21 52.06 9.23L52.06 9.23L52.06 9.23Q52.06 7.27 52.89 6.31L52.89 6.31L52.89 6.31Q53.72 5.35 55.35 5.35L55.35 5.35L55.35 5.35Q56.11 5.35 56.71 5.59L56.71 5.59L56.71 5.59Q57.31 5.82 57.73 6.31L57.73 6.31L57.73 6.31Q58.15 6.79 58.38 7.52L58.38 7.52L58.38 7.52Q58.60 8.24 58.60 9.23ZM53.42 9.23L53.42 9.23L53.42 9.23Q53.42 10.01 53.52 10.60L53.52 10.60L53.52 10.60Q53.62 11.20 53.85 11.60L53.85 11.60L53.85 11.60Q54.08 12.00 54.44 12.20L54.44 12.20L54.44 12.20Q54.81 12.41 55.34 12.41L55.34 12.41L55.34 12.41Q55.86 12.41 56.23 12.20L56.23 12.20L56.23 12.20Q56.59 12.00 56.81 11.60L56.81 11.60L56.81 11.60Q57.04 11.20 57.14 10.60L57.14 10.60L57.14 10.60Q57.24 10.01 57.24 9.23L57.24 9.23L57.24 9.23Q57.24 8.45 57.13 7.86L57.13 7.86L57.13 7.86Q57.03 7.27 56.81 6.88L56.81 6.88L56.81 6.88Q56.58 6.49 56.22 6.29L56.22 6.29L56.22 6.29Q55.85 6.09 55.32 6.09L55.32 6.09L55.32 6.09Q54.80 6.09 54.43 6.29L54.43 6.29L54.43 6.29Q54.07 6.49 53.85 6.88L53.85 6.88L53.85 6.88Q53.62 7.27 53.52 7.86L53.52 7.86L53.52 7.86Q53.42 8.45 53.42 9.23ZM66.45 2.36L66.45 11.46L66.45 11.46Q66.45 11.76 66.54 11.95L66.54 11.95L66.54 11.95Q66.64 12.14 66.79 12.24L66.79 12.24L66.79 12.24Q66.95 12.35 67.16 12.38L67.16 12.38L67.16 12.38Q67.37 12.41 67.60 12.41L67.60 12.41L67.72 12.41L67.72 13.00L65.34 13.00L65.19 11.74L65.14 11.74L65.14 11.74Q64.98 12.06 64.78 12.31L64.78 12.31L64.78 12.31Q64.58 12.57 64.32 12.75L64.32 12.75L64.32 12.75Q64.06 12.93 63.73 13.03L63.73 13.03L63.73 13.03Q63.40 13.13 62.99 13.13L62.99 13.13L62.99 13.13Q62.30 13.13 61.77 12.90L61.77 12.90L61.77 12.90Q61.24 12.67 60.87 12.20L60.87 12.20L60.87 12.20Q60.51 11.72 60.33 10.99L60.33 10.99L60.33 10.99Q60.14 10.26 60.14 9.26L60.14 9.26L60.14 9.26Q60.14 8.24 60.33 7.51L60.33 7.51L60.33 7.51Q60.51 6.77 60.87 6.29L60.87 6.29L60.87 6.29Q61.24 5.81 61.77 5.58L61.77 5.58L61.77 5.58Q62.30 5.35 62.99 5.35L62.99 5.35L62.99 5.35Q63.40 5.35 63.72 5.44L63.72 5.44L63.72 5.44Q64.05 5.53 64.32 5.69L64.32 5.69L64.32 5.69Q64.58 5.86 64.78 6.08L64.78 6.08L64.78 6.08Q64.99 6.31 65.14 6.58L65.14 6.58L65.22 6.58L65.22 6.58Q65.20 6.24 65.18 5.94L65.18 5.94L65.18 5.94Q65.17 5.68 65.15 5.42L65.15 5.42L65.15 5.42Q65.14 5.17 65.14 5.04L65.14 5.04L65.14 3.90L65.14 3.90Q65.14 3.59 65.05 3.40L65.05 3.40L65.05 3.40Q64.96 3.21 64.80 3.11L64.80 3.11L64.80 3.11Q64.64 3.01 64.43 2.98L64.43 2.98L64.43 2.98Q64.22 2.95 63.99 2.95L63.99 2.95L63.88 2.95L63.88 2.36L66.45 2.36ZM63.23 12.24L63.23 12.24L63.23 12.24Q63.78 12.24 64.15 12.06L64.15 12.06L64.15 12.06Q64.51 11.87 64.73 11.50L64.73 11.50L64.73 11.50Q64.96 11.14 65.05 10.58L65.05 10.58L65.05 10.58Q65.14 10.01 65.14 9.26L65.14 9.26L65.14 9.26Q65.14 8.52 65.05 7.96L65.05 7.96L65.05 7.96Q64.96 7.40 64.73 7.02L64.73 7.02L64.73 7.02Q64.51 6.64 64.14 6.45L64.14 6.45L64.14 6.45Q63.77 6.25 63.22 6.25L63.22 6.25L63.22 6.25Q62.76 6.25 62.43 6.45L62.43 6.45L62.43 6.45Q62.10 6.64 61.90 7.03L61.90 7.03L61.90 7.03Q61.69 7.41 61.59 7.97L61.59 7.97L61.59 7.97Q61.50 8.54 61.50 9.27L61.50 9.27L61.50 9.27Q61.50 10.76 61.90 11.50L61.90 11.50L61.90 11.50Q62.30 12.24 63.23 12.24ZM72.96 5.49L75.87 5.49L75.87 6.08L75.83 6.08L75.83 6.08Q75.63 6.08 75.48 6.12L75.48 6.12L75.48 6.12Q75.33 6.17 75.21 6.29L75.21 6.29L75.21 6.29Q75.09 6.41 74.99 6.62L74.99 6.62L74.99 6.62Q74.89 6.84 74.76 7.17L74.76 7.17L72.64 13.05L72.64 13.05Q72.39 13.73 72.17 14.24L72.17 14.24L72.17 14.24Q71.96 14.75 71.72 15.12L71.72 15.12L71.72 15.12Q71.48 15.48 71.19 15.72L71.19 15.72L71.19 15.72Q70.91 15.96 70.55 16.11L70.55 16.11L70.55 16.11Q70.18 16.25 69.71 16.30L69.71 16.30L69.71 16.30Q69.24 16.36 68.62 16.36L68.62 16.36L68.50 16.36L68.50 15.70L68.50 15.70Q69.21 15.70 69.72 15.48L69.72 15.48L69.72 15.48Q70.23 15.27 70.60 14.90L70.60 14.90L70.60 14.90Q70.98 14.53 71.23 14.03L71.23 14.03L71.23 14.03Q71.48 13.53 71.65 12.94L71.65 12.94L69.06 6.82L69.06 6.82Q68.96 6.60 68.87 6.46L68.87 6.46L68.87 6.46Q68.78 6.32 68.67 6.23L68.67 6.23L68.67 6.23Q68.56 6.15 68.41 6.11L68.41 6.11L68.41 6.11Q68.26 6.08 68.06 6.08L68.06 6.08L68.02 6.08L68.02 5.49L71.38 5.49L71.38 6.08L71.34 6.08L71.34 6.08Q70.92 6.08 70.71 6.24L70.71 6.24L70.71 6.24Q70.50 6.41 70.50 6.75L70.50 6.75L70.50 6.75Q70.50 6.87 70.52 6.99L70.52 6.99L70.52 6.99Q70.55 7.11 70.61 7.27L70.61 7.27L71.63 9.76L71.63 9.76Q71.73 10.00 71.84 10.28L71.84 10.28L71.84 10.28Q71.94 10.57 72.03 10.85L72.03 10.85L72.03 10.85Q72.13 11.12 72.20 11.37L72.20 11.37L72.20 11.37Q72.28 11.61 72.30 11.79L72.30 11.79L72.34 11.79L72.34 11.79Q72.42 11.48 72.55 11.04L72.55 11.04L72.55 11.04Q72.69 10.60 72.86 10.10L72.86 10.10L73.80 7.37L73.80 7.37Q73.86 7.20 73.89 7.04L73.89 7.04L73.89 7.04Q73.92 6.88 73.92 6.77L73.92 6.77L73.92 6.77Q73.92 6.41 73.69 6.24L73.69 6.24L73.69 6.24Q73.47 6.08 73.00 6.08L73.00 6.08L72.96 6.08L72.96 5.49ZM83.70 9.23L83.70 9.23L83.70 9.23Q83.70 10.24 83.51 10.98L83.51 10.98L83.51 10.98Q83.32 11.72 82.96 12.20L82.96 12.20L82.96 12.20Q82.60 12.67 82.07 12.90L82.07 12.90L82.07 12.90Q81.53 13.13 80.84 13.13L80.84 13.13L80.84 13.13Q80.44 13.13 80.11 13.04L80.11 13.04L80.11 13.04Q79.78 12.95 79.52 12.79L79.52 12.79L79.52 12.79Q79.26 12.63 79.05 12.40L79.05 12.40L79.05 12.40Q78.85 12.17 78.70 11.90L78.70 11.90L78.61 11.90L78.37 13.00L76.13 13.00L76.13 12.41L76.23 12.41L76.23 12.41Q76.47 12.41 76.68 12.37L76.68 12.37L76.68 12.37Q76.89 12.34 77.04 12.23L77.04 12.23L77.04 12.23Q77.20 12.13 77.29 11.93L77.29 11.93L77.29 11.93Q77.38 11.73 77.38 11.40L77.38 11.40L77.38 3.90L77.38 3.90Q77.38 3.59 77.29 3.40L77.29 3.40L77.29 3.40Q77.20 3.21 77.04 3.11L77.04 3.11L77.04 3.11Q76.88 3.01 76.68 2.98L76.68 2.98L76.68 2.98Q76.47 2.95 76.23 2.95L76.23 2.95L76.13 2.95L76.13 2.36L78.70 2.36L78.70 4.93L78.70 4.93Q78.70 5.17 78.70 5.48L78.70 5.48L78.70 5.48Q78.69 5.79 78.67 6.08L78.67 6.08L78.67 6.08Q78.66 6.41 78.65 6.75L78.65 6.75L78.70 6.75L78.70 6.75Q78.86 6.43 79.06 6.17L79.06 6.17L79.06 6.17Q79.26 5.91 79.52 5.73L79.52 5.73L79.52 5.73Q79.78 5.55 80.10 5.45L80.10 5.45L80.10 5.45Q80.43 5.35 80.84 5.35L80.84 5.35L80.84 5.35Q81.53 5.35 82.07 5.58L82.07 5.58L82.07 5.58Q82.60 5.81 82.96 6.29L82.96 6.29L82.96 6.29Q83.32 6.76 83.51 7.49L83.51 7.49L83.51 7.49Q83.70 8.22 83.70 9.23ZM80.60 6.25L80.60 6.25L80.60 6.25Q80.06 6.25 79.69 6.43L79.69 6.43L79.69 6.43Q79.32 6.61 79.11 6.98L79.11 6.98L79.11 6.98Q78.89 7.35 78.79 7.91L78.79 7.91L78.79 7.91Q78.70 8.47 78.70 9.23L78.70 9.23L78.70 9.23Q78.70 9.96 78.79 10.52L78.79 10.52L78.79 10.52Q78.89 11.08 79.11 11.46L79.11 11.46L79.11 11.46Q79.33 11.85 79.70 12.04L79.70 12.04L79.70 12.04Q80.06 12.24 80.62 12.24L80.62 12.24L80.62 12.24Q81.08 12.24 81.41 12.04L81.41 12.04L81.41 12.04Q81.73 11.85 81.94 11.46L81.94 11.46L81.94 11.46Q82.15 11.08 82.24 10.52L82.24 10.52L82.24 10.52Q82.34 9.95 82.34 9.21L82.34 9.21L82.34 9.21Q82.34 8.47 82.24 7.91L82.24 7.91L82.24 7.91Q82.15 7.36 81.94 6.99L81.94 6.99L81.94 6.99Q81.73 6.62 81.40 6.43L81.40 6.43L81.40 6.43Q81.07 6.25 80.60 6.25ZM91.84 5.49L91.84 11.47L91.84 11.47Q91.84 11.78 91.93 11.97L91.93 11.97L91.93 11.97Q92.03 12.15 92.18 12.25L92.18 12.25L92.18 12.25Q92.34 12.35 92.55 12.38L92.55 12.38L92.55 12.38Q92.76 12.41 92.99 12.41L92.99 12.41L93.03 12.41L93.03 13.00L90.81 13.00L90.62 11.86L90.56 11.86L90.56 11.86Q90.34 12.26 90.09 12.50L90.09 12.50L90.09 12.50Q89.83 12.75 89.54 12.89L89.54 12.89L89.54 12.89Q89.26 13.03 88.94 13.08L88.94 13.08L88.94 13.08Q88.63 13.13 88.29 13.13L88.29 13.13L88.29 13.13Q87.73 13.13 87.30 12.97L87.30 12.97L87.30 12.97Q86.87 12.82 86.58 12.48L86.58 12.48L86.58 12.48Q86.28 12.15 86.13 11.63L86.13 11.63L86.13 11.63Q85.98 11.11 85.98 10.39L85.98 10.39L85.98 7.03L85.98 7.03Q85.98 6.73 85.88 6.54L85.88 6.54L85.88 6.54Q85.79 6.35 85.63 6.25L85.63 6.25L85.63 6.25Q85.48 6.15 85.27 6.11L85.27 6.11L85.27 6.11Q85.06 6.08 84.83 6.08L84.83 6.08L84.79 6.08L84.79 5.49L87.29 5.49L87.29 10.32L87.29 10.32Q87.29 10.78 87.37 11.14L87.37 11.14L87.37 11.14Q87.44 11.49 87.61 11.74L87.61 11.74L87.61 11.74Q87.77 11.98 88.06 12.11L88.06 12.11L88.06 12.11Q88.34 12.24 88.76 12.24L88.76 12.24L88.76 12.24Q89.23 12.24 89.56 12.07L89.56 12.07L89.56 12.07Q89.89 11.91 90.11 11.61L90.11 11.61L90.11 11.61Q90.32 11.31 90.43 10.90L90.43 10.90L90.43 10.90Q90.53 10.48 90.53 9.97L90.53 9.97L90.53 7.09L90.53 7.09Q90.53 6.76 90.44 6.56L90.44 6.56L90.44 6.56Q90.34 6.36 90.19 6.25L90.19 6.25L90.19 6.25Q90.04 6.15 89.83 6.11L89.83 6.11L89.83 6.11Q89.62 6.08 89.38 6.08L89.38 6.08L89.34 6.08L89.34 5.49L91.84 5.49ZM93.67 12.41L93.86 12.41L93.86 12.41Q94.09 12.41 94.30 12.38L94.30 12.38L94.30 12.38Q94.51 12.35 94.66 12.25L94.66 12.25L94.66 12.25Q94.82 12.15 94.91 11.97L94.91 11.97L94.91 11.97Q95.01 11.78 95.01 11.47L95.01 11.47L95.01 7.03L95.01 7.03Q95.01 6.73 94.91 6.54L94.91 6.54L94.91 6.54Q94.82 6.35 94.66 6.25L94.66 6.25L94.66 6.25Q94.51 6.15 94.30 6.11L94.30 6.11L94.30 6.11Q94.09 6.08 93.86 6.08L93.86 6.08L93.82 6.08L93.82 5.49L96.32 5.49L96.32 11.40L96.32 11.40Q96.32 11.73 96.41 11.93L96.41 11.93L96.41 11.93Q96.50 12.13 96.66 12.23L96.66 12.23L96.66 12.23Q96.81 12.34 97.02 12.37L97.02 12.37L97.02 12.37Q97.23 12.41 97.47 12.41L97.47 12.41L97.65 12.41L97.65 13.00L93.67 13.00L93.67 12.41ZM94.81 3.22L94.81 3.22L94.81 3.22Q94.81 2.97 94.87 2.81L94.87 2.81L94.87 2.81Q94.93 2.65 95.04 2.54L95.04 2.54L95.04 2.54Q95.15 2.44 95.29 2.40L95.29 2.40L95.29 2.40Q95.44 2.36 95.61 2.36L95.61 2.36L95.61 2.36Q95.77 2.36 95.92 2.40L95.92 2.40L95.92 2.40Q96.06 2.44 96.16 2.54L96.16 2.54L96.16 2.54Q96.27 2.65 96.34 2.81L96.34 2.81L96.34 2.81Q96.40 2.97 96.40 3.22L96.40 3.22L96.40 3.22Q96.40 3.47 96.34 3.63L96.34 3.63L96.34 3.63Q96.27 3.79 96.16 3.90L96.16 3.90L96.16 3.90Q96.06 4.00 95.92 4.04L95.92 4.04L95.92 4.04Q95.77 4.09 95.61 4.09L95.61 4.09L95.61 4.09Q95.44 4.09 95.29 4.04L95.29 4.04L95.29 4.04Q95.15 4.00 95.04 3.90L95.04 3.90L95.04 3.90Q94.93 3.79 94.87 3.63L94.87 3.63L94.87 3.63Q94.81 3.47 94.81 3.22ZM98.01 12.41L98.19 12.41L98.19 12.41Q98.43 12.41 98.64 12.37L98.64 12.37L98.64 12.37Q98.85 12.34 99.00 12.23L99.00 12.23L99.00 12.23Q99.16 12.13 99.25 11.93L99.25 11.93L99.25 11.93Q99.34 11.73 99.34 11.40L99.34 11.40L99.34 3.90L99.34 3.90Q99.34 3.59 99.25 3.40L99.25 3.40L99.25 3.40Q99.16 3.21 99.00 3.11L99.00 3.11L99.00 3.11Q98.84 3.01 98.63 2.98L98.63 2.98L98.63 2.98Q98.42 2.95 98.19 2.95L98.19 2.95L98.01 2.95L98.01 2.36L100.66 2.36L100.66 11.40L100.66 11.40Q100.66 11.73 100.75 11.93L100.75 11.93L100.75 11.93Q100.84 12.13 100.99 12.23L100.99 12.23L100.99 12.23Q101.15 12.34 101.36 12.37L101.36 12.37L101.36 12.37Q101.57 12.41 101.81 12.41L101.81 12.41L101.99 12.41L101.99 13.00L98.01 13.00L98.01 12.41ZM109.25 2.36L109.25 11.46L109.25 11.46Q109.25 11.76 109.34 11.95L109.34 11.95L109.34 11.95Q109.44 12.14 109.59 12.24L109.59 12.24L109.59 12.24Q109.75 12.35 109.96 12.38L109.96 12.38L109.96 12.38Q110.17 12.41 110.40 12.41L110.40 12.41L110.52 12.41L110.52 13.00L108.14 13.00L107.99 11.74L107.94 11.74L107.94 11.74Q107.78 12.06 107.58 12.31L107.58 12.31L107.58 12.31Q107.38 12.57 107.12 12.75L107.12 12.75L107.12 12.75Q106.86 12.93 106.53 13.03L106.53 13.03L106.53 13.03Q106.20 13.13 105.79 13.13L105.79 13.13L105.79 13.13Q105.10 13.13 104.57 12.90L104.57 12.90L104.57 12.90Q104.04 12.67 103.67 12.20L103.67 12.20L103.67 12.20Q103.31 11.72 103.13 10.99L103.13 10.99L103.13 10.99Q102.94 10.26 102.94 9.26L102.94 9.26L102.94 9.26Q102.94 8.24 103.13 7.51L103.13 7.51L103.13 7.51Q103.31 6.77 103.67 6.29L103.67 6.29L103.67 6.29Q104.04 5.81 104.57 5.58L104.57 5.58L104.57 5.58Q105.10 5.35 105.79 5.35L105.79 5.35L105.79 5.35Q106.20 5.35 106.52 5.44L106.52 5.44L106.52 5.44Q106.85 5.53 107.12 5.69L107.12 5.69L107.12 5.69Q107.38 5.86 107.58 6.08L107.58 6.08L107.58 6.08Q107.79 6.31 107.94 6.58L107.94 6.58L108.02 6.58L108.02 6.58Q108.00 6.24 107.98 5.94L107.98 5.94L107.98 5.94Q107.97 5.68 107.95 5.42L107.95 5.42L107.95 5.42Q107.94 5.17 107.94 5.04L107.94 5.04L107.94 3.90L107.94 3.90Q107.94 3.59 107.85 3.40L107.85 3.40L107.85 3.40Q107.75 3.21 107.60 3.11L107.60 3.11L107.60 3.11Q107.44 3.01 107.23 2.98L107.23 2.98L107.23 2.98Q107.02 2.95 106.79 2.95L106.79 2.95L106.67 2.95L106.67 2.36L109.25 2.36ZM106.03 12.24L106.03 12.24L106.03 12.24Q106.58 12.24 106.94 12.06L106.94 12.06L106.94 12.06Q107.31 11.87 107.53 11.50L107.53 11.50L107.53 11.50Q107.75 11.14 107.85 10.58L107.85 10.58L107.85 10.58Q107.94 10.01 107.94 9.26L107.94 9.26L107.94 9.26Q107.94 8.52 107.85 7.96L107.85 7.96L107.85 7.96Q107.75 7.40 107.53 7.02L107.53 7.02L107.53 7.02Q107.31 6.64 106.94 6.45L106.94 6.45L106.94 6.45Q106.57 6.25 106.02 6.25L106.02 6.25L106.02 6.25Q105.56 6.25 105.23 6.45L105.23 6.45L105.23 6.45Q104.90 6.64 104.70 7.03L104.70 7.03L104.70 7.03Q104.49 7.41 104.39 7.97L104.39 7.97L104.39 7.97Q104.30 8.54 104.30 9.27L104.30 9.27L104.30 9.27Q104.30 10.76 104.70 11.50L104.70 11.50L104.70 11.50Q105.10 12.24 106.03 12.24ZM111.08 12.41L111.27 12.41L111.27 12.41Q111.50 12.41 111.71 12.38L111.71 12.38L111.71 12.38Q111.92 12.35 112.08 12.25L112.08 12.25L112.08 12.25Q112.23 12.15 112.32 11.97L112.32 11.97L112.32 11.97Q112.42 11.78 112.42 11.47L112.42 11.47L112.42 7.03L112.42 7.03Q112.42 6.73 112.32 6.54L112.32 6.54L112.32 6.54Q112.23 6.35 112.08 6.25L112.08 6.25L112.08 6.25Q111.92 6.15 111.71 6.11L111.71 6.11L111.71 6.11Q111.50 6.08 111.27 6.08L111.27 6.08L111.23 6.08L111.23 5.49L113.73 5.49L113.73 11.40L113.73 11.40Q113.73 11.73 113.82 11.93L113.82 11.93L113.82 11.93Q113.91 12.13 114.07 12.23L114.07 12.23L114.07 12.23Q114.22 12.34 114.43 12.37L114.43 12.37L114.43 12.37Q114.65 12.41 114.88 12.41L114.88 12.41L115.06 12.41L115.06 13.00L111.08 13.00L111.08 12.41ZM112.22 3.22L112.22 3.22L112.22 3.22Q112.22 2.97 112.28 2.81L112.28 2.81L112.28 2.81Q112.34 2.65 112.45 2.54L112.45 2.54L112.45 2.54Q112.56 2.44 112.70 2.40L112.70 2.40L112.70 2.40Q112.85 2.36 113.02 2.36L113.02 2.36L113.02 2.36Q113.18 2.36 113.33 2.40L113.33 2.40L113.33 2.40Q113.47 2.44 113.58 2.54L113.58 2.54L113.58 2.54Q113.68 2.65 113.75 2.81L113.75 2.81L113.75 2.81Q113.81 2.97 113.81 3.22L113.81 3.22L113.81 3.22Q113.81 3.47 113.75 3.63L113.75 3.63L113.75 3.63Q113.68 3.79 113.58 3.90L113.58 3.90L113.58 3.90Q113.47 4.00 113.33 4.04L113.33 4.04L113.33 4.04Q113.18 4.09 113.02 4.09L113.02 4.09L113.02 4.09Q112.85 4.09 112.70 4.04L112.70 4.04L112.70 4.04Q112.56 4.00 112.45 3.90L112.45 3.90L112.45 3.90Q112.34 3.79 112.28 3.63L112.28 3.63L112.28 3.63Q112.22 3.47 112.22 3.22ZM119.36 12.41L119.40 12.41L119.40 13.00L115.63 13.00L115.63 12.41L115.75 12.41L115.75 12.41Q115.99 12.41 116.19 12.37L116.19 12.37L116.19 12.37Q116.40 12.34 116.56 12.23L116.56 12.23L116.56 12.23Q116.71 12.13 116.80 11.93L116.80 11.93L116.80 11.93Q116.89 11.73 116.89 11.40L116.89 11.40L116.89 7.03L116.89 7.03Q116.89 6.73 116.80 6.54L116.80 6.54L116.80 6.54Q116.71 6.35 116.55 6.25L116.55 6.25L116.55 6.25Q116.40 6.15 116.19 6.11L116.19 6.11L116.19 6.11Q115.98 6.08 115.75 6.08L115.75 6.08L115.71 6.08L115.71 5.49L117.97 5.49L118.15 6.62L118.22 6.62L118.22 6.62Q118.44 6.23 118.68 5.98L118.68 5.98L118.68 5.98Q118.92 5.74 119.19 5.60L119.19 5.60L119.19 5.60Q119.46 5.46 119.77 5.40L119.77 5.40L119.77 5.40Q120.07 5.35 120.41 5.35L120.41 5.35L120.41 5.35Q120.96 5.35 121.40 5.51L121.40 5.51L121.40 5.51Q121.83 5.67 122.13 6.01L122.13 6.01L122.13 6.01Q122.44 6.34 122.60 6.86L122.60 6.86L122.60 6.86Q122.76 7.38 122.76 8.09L122.76 8.09L122.76 11.40L122.76 11.40Q122.76 11.73 122.84 11.93L122.84 11.93L122.84 11.93Q122.92 12.13 123.06 12.23L123.06 12.23L123.06 12.23Q123.20 12.34 123.40 12.37L123.40 12.37L123.40 12.37Q123.60 12.41 123.83 12.41L123.83 12.41L123.88 12.41L123.88 13.00L121.44 13.00L121.44 8.16L121.44 8.16Q121.44 7.70 121.36 7.35L121.36 7.35L121.36 7.35Q121.28 6.99 121.10 6.75L121.10 6.75L121.10 6.75Q120.91 6.50 120.62 6.37L120.62 6.37L120.62 6.37Q120.33 6.25 119.90 6.25L119.90 6.25L119.90 6.25Q119.42 6.25 119.10 6.43L119.10 6.43L119.10 6.43Q118.77 6.62 118.58 6.93L118.58 6.93L118.58 6.93Q118.38 7.25 118.29 7.66L118.29 7.66L118.29 7.66Q118.21 8.07 118.21 8.52L118.21 8.52L118.21 11.47L118.21 11.47Q118.21 11.78 118.30 11.97L118.30 11.97L118.30 11.97Q118.39 12.15 118.55 12.25L118.55 12.25L118.55 12.25Q118.71 12.35 118.91 12.38L118.91 12.38L118.91 12.38Q119.12 12.41 119.36 12.41L119.36 12.41ZM131.63 5.78L131.63 5.78L131.63 5.78Q131.63 5.93 131.59 6.07L131.59 6.07L131.59 6.07Q131.54 6.20 131.46 6.30L131.46 6.30L131.46 6.30Q131.37 6.40 131.23 6.46L131.23 6.46L131.23 6.46Q131.09 6.51 130.89 6.51L130.89 6.51L130.89 6.51Q130.89 6.43 130.87 6.35L130.87 6.35L130.87 6.35Q130.85 6.27 130.80 6.20L130.80 6.20L130.80 6.20Q130.75 6.13 130.66 6.08L130.66 6.08L130.66 6.08Q130.57 6.04 130.43 6.04L130.43 6.04L130.43 6.04Q130.25 6.04 130.11 6.08L130.11 6.08L130.11 6.08Q129.96 6.12 129.83 6.21L129.83 6.21L129.83 6.21Q130.07 6.50 130.22 6.90L130.22 6.90L130.22 6.90Q130.38 7.30 130.38 7.90L130.38 7.90L130.38 7.90Q130.38 8.42 130.22 8.86L130.22 8.86L130.22 8.86Q130.06 9.30 129.75 9.63L129.75 9.63L129.75 9.63Q129.44 9.95 128.96 10.13L128.96 10.13L128.96 10.13Q128.49 10.31 127.85 10.31L127.85 10.31L127.85 10.31Q127.77 10.31 127.67 10.31L127.67 10.31L127.67 10.31Q127.57 10.30 127.46 10.30L127.46 10.30L127.46 10.30Q127.36 10.29 127.27 10.28L127.27 10.28L127.27 10.28Q127.18 10.27 127.13 10.27L127.13 10.27L127.13 10.27Q126.99 10.34 126.87 10.42L126.87 10.42L126.87 10.42Q126.75 10.50 126.65 10.60L126.65 10.60L126.65 10.60Q126.56 10.71 126.51 10.83L126.51 10.83L126.51 10.83Q126.45 10.96 126.45 11.12L126.45 11.12L126.45 11.12Q126.45 11.29 126.52 11.40L126.52 11.40L126.52 11.40Q126.58 11.50 126.70 11.56L126.70 11.56L126.70 11.56Q126.81 11.61 126.97 11.63L126.97 11.63L126.97 11.63Q127.13 11.65 127.32 11.65L127.32 11.65L128.91 11.65L128.91 11.65Q129.53 11.65 129.97 11.81L129.97 11.81L129.97 11.81Q130.41 11.96 130.69 12.24L130.69 12.24L130.69 12.24Q130.96 12.52 131.09 12.90L131.09 12.90L131.09 12.90Q131.22 13.29 131.22 13.74L131.22 13.74L131.22 13.74Q131.22 14.34 130.99 14.83L130.99 14.83L130.99 14.83Q130.77 15.31 130.31 15.65L130.31 15.65L130.31 15.65Q129.86 15.99 129.15 16.17L129.15 16.17L129.15 16.17Q128.45 16.36 127.50 16.36L127.50 16.36L127.50 16.36Q126.04 16.36 125.32 15.82L125.32 15.82L125.32 15.82Q124.59 15.28 124.59 14.31L124.59 14.31L124.59 14.31Q124.59 13.90 124.74 13.60L124.74 13.60L124.74 13.60Q124.88 13.29 125.12 13.07L125.12 13.07L125.12 13.07Q125.36 12.85 125.68 12.71L125.68 12.71L125.68 12.71Q125.99 12.58 126.34 12.52L126.34 12.52L126.34 12.52Q126.20 12.46 126.06 12.35L126.06 12.35L126.06 12.35Q125.92 12.25 125.82 12.11L125.82 12.11L125.82 12.11Q125.71 11.96 125.64 11.78L125.64 11.78L125.64 11.78Q125.57 11.59 125.57 11.37L125.57 11.37L125.57 11.37Q125.57 10.95 125.79 10.65L125.79 10.65L125.79 10.65Q126.01 10.34 126.49 10.06L126.49 10.06L126.49 10.06Q126.18 9.93 125.95 9.72L125.95 9.72L125.95 9.72Q125.71 9.50 125.55 9.23L125.55 9.23L125.55 9.23Q125.39 8.95 125.31 8.62L125.31 8.62L125.31 8.62Q125.22 8.29 125.22 7.94L125.22 7.94L125.22 7.94Q125.22 7.33 125.38 6.86L125.38 6.86L125.38 6.86Q125.55 6.38 125.88 6.04L125.88 6.04L125.88 6.04Q126.21 5.71 126.70 5.53L126.70 5.53L126.70 5.53Q127.19 5.35 127.85 5.35L127.85 5.35L127.85 5.35Q128.11 5.35 128.35 5.39L128.35 5.39L128.35 5.39Q128.60 5.43 128.81 5.49L128.81 5.49L128.81 5.49Q129.01 5.56 129.18 5.64L129.18 5.64L129.18 5.64Q129.35 5.72 129.45 5.81L129.45 5.81L129.45 5.81Q129.55 5.70 129.69 5.57L129.69 5.57L129.69 5.57Q129.83 5.43 130.00 5.32L130.00 5.32L130.00 5.32Q130.17 5.21 130.37 5.13L130.37 5.13L130.37 5.13Q130.57 5.06 130.81 5.06L130.81 5.06L130.81 5.06Q131.02 5.06 131.17 5.12L131.17 5.12L131.17 5.12Q131.33 5.17 131.43 5.27L131.43 5.27L131.43 5.27Q131.53 5.37 131.58 5.51L131.58 5.51L131.58 5.51Q131.63 5.64 131.63 5.78ZM125.73 14.23L125.73 14.23L125.73 14.23Q125.73 14.53 125.81 14.80L125.81 14.80L125.81 14.80Q125.89 15.07 126.10 15.26L126.10 15.26L126.10 15.26Q126.30 15.45 126.65 15.56L126.65 15.56L126.65 15.56Q127.00 15.67 127.53 15.67L127.53 15.67L127.53 15.67Q128.28 15.67 128.77 15.54L128.77 15.54L128.77 15.54Q129.26 15.42 129.55 15.19L129.55 15.19L129.55 15.19Q129.83 14.96 129.95 14.65L129.95 14.65L129.95 14.65Q130.07 14.34 130.07 13.97L130.07 13.97L130.07 13.97Q130.07 13.65 129.98 13.44L129.98 13.44L129.98 13.44Q129.88 13.23 129.70 13.11L129.70 13.11L129.70 13.11Q129.52 13.00 129.25 12.95L129.25 12.95L129.25 12.95Q128.99 12.90 128.64 12.90L128.64 12.90L127.26 12.90L127.26 12.90Q126.97 12.90 126.69 12.95L126.69 12.95L126.69 12.95Q126.42 13.00 126.20 13.15L126.20 13.15L126.20 13.15Q125.99 13.29 125.86 13.55L125.86 13.55L125.86 13.55Q125.73 13.81 125.73 14.23ZM126.54 7.90L126.54 7.90L126.54 7.90Q126.54 8.80 126.84 9.21L126.84 9.21L126.84 9.21Q127.13 9.63 127.81 9.63L127.81 9.63L127.81 9.63Q128.15 9.63 128.39 9.53L128.39 9.53L128.39 9.53Q128.63 9.43 128.78 9.21L128.78 9.21L128.78 9.21Q128.93 9.00 128.99 8.67L128.99 8.67L128.99 8.67Q129.06 8.34 129.06 7.88L129.06 7.88L129.06 7.88Q129.06 6.94 128.77 6.49L128.77 6.49L128.77 6.49Q128.48 6.04 127.80 6.04L127.80 6.04L127.80 6.04Q127.12 6.04 126.83 6.50L126.83 6.50L126.83 6.50Q126.54 6.96 126.54 7.90Z"></path></g><!----><!----></svg>